PathFileType	3	(X/Y/Z)	C:\Users\koon_\Desktop\
DataRate	CameraRate	NumFrames	NumMarkers	Units	OrigDataRate	OrigDataStartFrame	OrigNumFrames
100.0	100.0	12	27	mm	100.0	1261	5041	
Frame#	Time	get:LFHD			get:RFHD			get:LBHD			get:RBHD			get:C7			get:T10			get:CLAV			get:STRN			get:RBAK			get:LSHO			get:LUPA			get:LELB			get:LFRA			get:LWRA			get:LWRB			get:LFIN			get:RSHO			get:RUPA			get:RELB			get:RFRA			get:RWRA			get:RWRB			get:RFIN			get:LASI			get:RASI			get:LPSI			get:RPSI			
		X1	Y1	Z1	X2	Y2	Z2	X3	Y3	Z3	X4	Y4	Z4	X5	Y5	Z5	X6	Y6	Z6	X7	Y7	Z7	X8	Y8	Z8	X9	Y9	Z9	X10	Y10	Z10	X11	Y11	Z11	X12	Y12	Z12	X13	Y13	Z13	X14	Y14	Z14	X15	Y15	Z15	X16	Y16	Z16	X17	Y17	Z17	X18	Y18	Z18	X19	Y19	Z19	X20	Y20	Z20	X21	Y21	Z21	X22	Y22	Z22	X23	Y23	Z23	X24	Y24	Z24	X25	Y25	Z25	X26	Y26	Z26	X27	Y27	Z27	
1261	12.6	39.896408	1529.8142	-26.010452	-103.85242	1511.7532	-49.1908	56.700855	1543.9185	-161.88583	-89.880318	1518.3877	-182.49138	26.890171	1321.6337	-233.98306	3.6949661	1115.3392	-256.21729	7.1001024	1247.7693	-40.630676	-12.582224	1096.3153	7.7547803	-71.493317	1262.4598	-269.3728	177.99168	1315.4171	-148.79816	206.59557	1102.7346	-89.43795	238.8143	988.16626	-138.70517	211.12175	938.28912	-64.996819	167.02414	771.43353	-36.104221	239.8688	771.70819	-53.162922	221.79074	705.06628	-14.923077	-82.898621	1355.3528	-159.35823	-162.25136	1385.0343	-146.99243	-346.51114	1486.4368	-124.714	-207.86017	1548.7303	-104.73493	-118.9878	1598.0959	-76.852623	-167.72528	1602.2104	-20.569431	-83.834129	1630.9467	-5.857584	125.50503	886.61292	-52.030945	-168.23354	903.74127	-67.697418	43.046982	922.03644	-240.98936	-44.69334	921.24139	-249.64877
1262	12.61	39.930138	1529.6816	-25.757711	-103.87648	1511.6599	-48.784569	56.601158	1543.9648	-161.62231	-89.680237	1518.1987	-181.51244	26.93565	1321.7012	-233.92162	3.77601	1115.3826	-256.18192	7.0651054	1247.7997	-40.681744	-12.670301	1096.3326	7.8053575	-71.29686	1262.5004	-269.53964	177.97165	1315.4918	-148.65126	206.68013	1102.787	-89.353683	239.00206	988.27325	-138.71667	211.50714	938.26312	-65.073952	167.4664	771.4472	-36.497135	240.42633	771.80328	-53.487812	222.43843	705.01654	-15.338318	-82.823273	1355.4537	-159.37907	-162.06367	1385.3043	-147.56444	-346.41092	1487.0287	-126.37936	-207.75336	1549.4658	-107.17377	-118.84097	1599.05	-79.666519	-167.74036	1603.824	-23.542767	-83.871155	1632.8138	-9.0926847	125.54819	886.58344	-52.023129	-168.20198	903.74359	-67.761269	43.119297	922.04431	-240.99281	-44.694828	921.2403	-249.64621
1263	12.62	39.974464	1529.5505	-25.510466	-103.8727	1511.5525	-48.420498	56.561214	1544.0111	-161.34781	-89.785355	1518.328	-181.23465	26.957596	1321.7374	-233.76605	3.8249347	1115.4564	-256.16464	6.9931798	1247.796	-40.671413	-12.734409	1096.3611	7.7523446	-71.124619	1262.4932	-269.53824	177.94916	1315.5518	-148.46533	206.82904	1102.8423	-89.189491	239.252	988.42535	-138.73195	211.81813	938.26367	-65.144356	168.19061	771.37445	-36.79604	240.95088	771.82593	-53.74675	223.10764	705.02612	-15.614143	-82.766136	1355.5779	-159.44524	-161.97408	1385.5391	-148.10735	-346.2522	1487.627	-128.39343	-207.67218	1550.2094	-109.66467	-118.80264	1600.1223	-82.558746	-167.78426	1605.4194	-26.62125	-83.995125	1634.6591	-12.238119	125.53412	886.54968	-52.008595	-168.19315	903.77795	-67.767113	43.120701	922.05182	-241.03651	-44.637611	921.26892	-249.70802
1264	12.63	40.006607	1529.4174	-25.219938	-103.96866	1511.677	-47.899521	56.510017	1544.0636	-161.0717	-89.873741	1518.4717	-180.92438	27.057833	1321.8423	-233.69991	3.8817182	1115.4841	-256.09061	6.9298844	1247.8331	-40.562107	-12.809432	1096.3423	7.747251	-70.894524	1262.4905	-269.63779	177.92241	1315.6102	-148.31885	206.92107	1102.9027	-89.113396	239.46368	988.52887	-138.73926	212.14172	938.2865	-65.1633	169.37715	771.3833	-36.996933	241.44426	771.89813	-53.945393	223.70445	704.98755	-15.920309	-82.673264	1355.6606	-159.53177	-161.88646	1385.7701	-148.66479	-346.04242	1488.1627	-130.29362	-207.66748	1551.002	-112.00938	-118.81866	1601.2067	-85.41098	-167.8791	1606.983	-29.601616	-84.129166	1636.4865	-15.320493	125.53573	886.55676	-52.003742	-168.21152	903.75293	-67.872818	43.182564	922.00671	-241.05779	-44.63776	921.23688	-249.6806
1265	12.64	40.071194	1529.2917	-24.915592	-103.91919	1511.4719	-47.308636	56.445045	1544.1135	-160.80344	-89.900246	1518.587	-180.72043	27.126743	1321.9017	-233.55075	4.0088959	1115.5527	-256.10132	6.9167962	1247.8511	-40.513058	-12.914605	1096.3212	7.7699642	-70.727585	1262.4762	-269.61221	177.93584	1315.6777	-148.09239	207.08237	1102.9117	-89.001709	239.64462	988.63568	-138.67084	212.43318	938.29315	-65.130943	169.87822	771.3056	-37.150997	241.98076	771.92181	-54.121143	224.30331	704.99182	-16.211866	-82.617332	1355.7559	-159.54898	-161.7543	1385.9448	-149.12447	-346.00397	1488.7202	-132.20737	-207.68268	1551.736	-114.49669	-118.82981	1602.2306	-88.271957	-167.99278	1608.5341	-32.632462	-84.289978	1638.3392	-18.61697	125.53245	886.53461	-52.004211	-168.23466	903.76544	-67.888321	43.182518	922.00677	-241.05766	-44.577576	921.27539	-249.79521
1266	12.65	40.134731	1529.1459	-24.610474	-103.94382	1511.3375	-46.60379	56.389999	1544.1414	-160.52664	-89.967125	1518.6125	-180.28679	27.230896	1321.9784	-233.46083	4.0830617	1115.5732	-255.99045	6.8753605	1247.8656	-40.389137	-13.006759	1096.3699	7.7046313	-70.503609	1262.436	-269.54208	177.92661	1315.7078	-147.87642	207.18314	1102.9573	-88.901581	239.88864	988.75806	-138.66547	212.72755	938.32843	-65.160812	170.32758	771.20953	-37.328838	242.46924	772.00879	-54.266361	224.8615	704.97198	-16.45079	-82.591011	1355.8439	-159.60214	-161.66771	1386.1478	-149.65564	-345.93839	1489.2444	-134.23956	-207.65291	1552.517	-117.03404	-118.87732	1603.3556	-91.190926	-168.11919	1610.0881	-35.724758	-84.419365	1640.1544	-21.950188	125.49311	886.5484	-52.001087	-168.26233	903.77997	-67.92881	43.202259	922.01086	-241.08321	-44.579472	921.27588	-249.79591
1267	12.66	40.174137	1528.9951	-24.293646	-103.95651	1511.2236	-46.294186	56.345718	1544.1718	-160.19485	-90.027359	1518.6421	-179.80412	27.32497	1322.0442	-233.31078	4.1765261	1115.6345	-255.93958	6.8290739	1247.8955	-40.361149	-13.058793	1096.354	7.7192698	-70.297997	1262.4447	-269.6683	177.90579	1315.7756	-147.70036	207.3045	1102.9941	-88.789261	240.11687	988.87097	-138.59807	212.99063	938.35614	-65.116867	170.72693	771.17371	-37.433407	242.95872	772.06299	-54.396797	225.42039	704.97961	-16.634064	-82.529793	1355.9426	-159.66081	-161.55923	1386.3774	-150.1689	-345.84308	1489.7371	-136.18169	-207.66182	1553.2432	-119.61149	-118.82893	1604.3813	-94.129555	-168.44444	1611.7603	-39.231449	-84.550644	1641.9664	-25.269096	125.45134	886.56952	-51.995918	-168.28966	903.79065	-67.970184	43.228348	922.01233	-241.0829	-44.583702	921.25977	-249.79393
1268	12.67	40.208748	1528.8712	-23.995964	-103.89128	1511.1415	-46.020031	56.329941	1544.2068	-159.82922	-90.088943	1518.7144	-179.36121	27.3794	1322.0807	-233.19473	4.2640028	1115.6833	-255.92204	6.777185	1247.9259	-40.363194	-13.158177	1096.3481	7.684185	-70.106979	1262.4276	-269.64508	177.92046	1315.817	-147.48409	207.40134	1103.0571	-88.656769	240.33876	989.01038	-138.54639	213.22372	938.40485	-65.075462	170.64868	771.04761	-37.493305	243.39458	772.15015	-54.419163	225.94652	704.99353	-16.752382	-82.459671	1356.0258	-159.70763	-161.49832	1386.5847	-150.68073	-345.78629	1490.2762	-138.31523	-207.60109	1553.8512	-122.07749	-118.8842	1605.3187	-97.134743	-168.51302	1613.3065	-42.447845	-84.752022	1643.8052	-28.732437	125.44839	886.56366	-52.019562	-168.27808	903.81213	-68.013428	43.230171	922.02051	-241.12643	-44.549686	921.28668	-249.87869
1269	12.68	40.284981	1528.7052	-23.710968	-103.72289	1510.9291	-46.258045	56.289974	1544.2386	-159.50032	-90.094429	1518.84	-179.05377	27.471348	1322.1473	-233.1129	4.3800435	1115.7155	-255.82799	6.7440047	1247.9647	-40.3316	-13.222825	1096.3274	7.6407704	-69.869019	1262.4382	-269.77145	177.90166	1315.8978	-147.29755	207.52132	1103.0946	-88.520958	240.57954	989.09473	-138.49086	213.47484	938.46021	-65.033577	171.03891	771.0307	-37.525623	243.79942	772.24133	-54.443497	226.41946	705.02686	-16.793901	-82.409676	1356.1366	-159.74521	-161.37665	1386.8281	-151.29961	-345.7197	1490.6274	-140.01891	-207.59206	1554.4376	-124.53563	-118.89803	1606.1841	-100.13192	-168.66629	1614.8206	-45.71508	-84.9039	1645.6317	-32.24395	125.43245	886.56262	-52.024609	-168.33315	903.8078	-68.059113	43.230827	922.02136	-241.12671	-44.563026	921.26489	-249.85129
1270	12.69	40.326096	1528.5688	-23.383326	-103.70938	1510.8237	-45.836056	56.265469	1544.2972	-159.15216	-90.144958	1518.8683	-178.64622	27.551027	1322.224	-233.02313	4.4864187	1115.7898	-255.81297	6.6633873	1247.9767	-40.322449	-13.293984	1096.3735	7.6434479	-69.684891	1262.4342	-269.72754	177.9043	1315.9498	-147.11237	207.59055	1103.1631	-88.412949	240.81491	989.24469	-138.34032	213.72171	938.56647	-64.922035	171.26707	771.09625	-37.522972	244.18059	772.29352	-54.430824	226.87564	705.06989	-16.797962	-82.366364	1356.2126	-159.79396	-161.29788	1387.0337	-151.7724	-345.72827	1491.0033	-141.90714	-207.58484	1554.9686	-127.14729	-118.93245	1606.9946	-103.2554	-168.76544	1616.2959	-48.995049	-85.077301	1647.3831	-35.693405	125.41194	886.56024	-52.041191	-168.33554	903.82166	-68.064217	43.254848	922.0282	-241.15291	-44.51104	921.28851	-249.90506
1271	12.7	40.36515	1528.3711	-23.034494	-103.65868	1510.6881	-45.456779	56.220474	1544.3679	-158.80597	-90.171326	1518.9496	-178.2225	27.617878	1322.2924	-232.87881	4.557703	1115.8284	-255.72893	6.6471629	1248.0151	-40.20602	-13.373926	1096.3582	7.6366091	-69.487183	1262.4531	-269.7478	177.91335	1316.0117	-146.94643	207.66223	1103.2244	-88.250374	241.0054	989.33429	-138.23817	214.00064	938.60529	-64.821899	171.65208	771.08398	-37.49707	244.53955	772.39539	-54.391285	227.29753	705.15887	-16.782841	-82.293732	1356.3373	-159.88567	-161.16939	1387.2429	-152.26921	-345.65646	1491.4325	-143.95905	-207.59021	1555.5022	-129.73869	-118.9262	1607.8611	-106.32037	-168.88367	1617.7119	-52.218342	-85.254951	1649.109	-39.364445	125.38061	886.54883	-52.070648	-168.37892	903.83105	-68.140205	43.254803	922.02826	-241.15282	-44.556198	921.21936	-249.77647
1272	12.71	40.422951	1528.2112	-22.735847	-103.70556	1510.7189	-44.660595	56.237606	1544.401	-158.47292	-90.231453	1519.0225	-177.73877	27.661505	1322.355	-232.7738	4.6424036	1115.8861	-255.74715	6.5686102	1248.0259	-40.192875	-13.458413	1096.3892	7.6422472	-69.283028	1262.4318	-269.77338	177.89368	1316.0712	-146.77599	207.75974	1103.2928	-88.089783	241.19992	989.45129	-138.10135	214.18929	938.66888	-64.697281	171.98874	771.14502	-37.41909	244.84529	772.47809	-54.294922	227.64694	705.2381	-16.664259	-82.242805	1356.4104	-159.944	-161.13702	1387.4376	-152.73424	-345.65582	1491.734	-145.61696	-207.62822	1556.0582	-132.29546	-118.97787	1608.7383	-109.46021	-168.99022	1619.0897	-55.496788	-85.403229	1650.7288	-42.816032	125.37506	886.5564	-52.065689	-168.42558	903.84027	-68.112747	43.253944	922.02728	-241.15225	-44.531036	921.22461	-249.78461
